<svg width="149" height="22" viewBox="0 0 149 22" fill="none" xmlns="http://www.w3.org/2000/svg">
<rect x="0.25" y="0.25" width="148.5" height="21.5" rx="1.75" fill="white" stroke="black" stroke-width="0.5"/>
<path d="M12.264 8.424C12.264 8.568 12.3147 8.69333 12.416 8.8C12.5173 8.90133 12.6427 8.952 12.792 8.952C12.936 8.952 13.0587 8.90133 13.16 8.8C13.2667 8.69333 13.32 8.568 13.32 8.424C13.32 8.27467 13.2667 8.14933 13.16 8.048C13.0587 7.94133 12.936 7.888 12.792 7.888C12.6427 7.888 12.5173 7.94133 12.416 8.048C12.3147 8.14933 12.264 8.27467 12.264 8.424ZM11.896 8.424C11.896 8.25867 11.936 8.10933 12.016 7.976C12.096 7.83733 12.2027 7.728 12.336 7.648C12.4747 7.56267 12.6267 7.52 12.792 7.52C12.952 7.52 13.1013 7.56267 13.24 7.648C13.3787 7.728 13.488 7.83733 13.568 7.976C13.648 8.10933 13.688 8.25867 13.688 8.424C13.688 8.58933 13.648 8.73867 13.568 8.872C13.488 9.00533 13.3787 9.11467 13.24 9.2C13.1013 9.28 12.952 9.32 12.792 9.32C12.6267 9.32 12.4747 9.28 12.336 9.2C12.2027 9.11467 12.096 9.00533 12.016 8.872C11.936 8.73867 11.896 8.58933 11.896 8.424ZM7.744 11.592C7.82933 11.384 7.912 11.1573 7.992 10.912C8.07733 10.6667 8.15467 10.4133 8.224 10.152C8.29867 9.88533 8.36267 9.624 8.416 9.368C8.46933 9.10667 8.50667 8.85867 8.528 8.624L9.24 8.776C9.22933 8.83467 9.21333 8.89867 9.192 8.968C9.17067 9.032 9.152 9.09867 9.136 9.168C9.12 9.23733 9.10667 9.30133 9.096 9.36C9.06933 9.48267 9.032 9.64267 8.984 9.84C8.936 10.0373 8.88 10.2533 8.816 10.488C8.752 10.7227 8.68267 10.96 8.608 11.2C8.53333 11.4347 8.45333 11.6533 8.368 11.856C8.272 12.1013 8.16 12.3547 8.032 12.616C7.90933 12.872 7.776 13.1227 7.632 13.368C7.488 13.6133 7.34133 13.8427 7.192 14.056L6.512 13.768C6.76267 13.432 6.99467 13.0693 7.208 12.68C7.42667 12.2853 7.60533 11.9227 7.744 11.592ZM11.68 11.288C11.6 11.08 11.512 10.8613 11.416 10.632C11.32 10.4027 11.2187 10.1733 11.112 9.944C11.0053 9.70933 10.9013 9.49067 10.8 9.288C10.704 9.08 10.6107 8.904 10.52 8.76L11.168 8.544C11.248 8.68267 11.336 8.85333 11.432 9.056C11.5333 9.25867 11.6373 9.47467 11.744 9.704C11.8507 9.93333 11.9547 10.1653 12.056 10.4C12.1573 10.6347 12.2507 10.8587 12.336 11.072C12.416 11.2693 12.5013 11.4907 12.592 11.736C12.6827 11.976 12.7707 12.2213 12.856 12.472C12.9467 12.7173 13.0293 12.9573 13.104 13.192C13.1787 13.4213 13.2427 13.6267 13.296 13.808L12.584 14.04C12.52 13.768 12.4373 13.4747 12.336 13.16C12.24 12.84 12.136 12.52 12.024 12.2C11.912 11.8747 11.7973 11.5707 11.68 11.288ZM20.4 8.648C20.3733 8.68 20.3387 8.73333 20.296 8.808C20.2587 8.87733 20.2267 8.94133 20.2 9C20.0987 9.26133 19.9653 9.552 19.8 9.872C19.6347 10.1867 19.4507 10.4987 19.248 10.808C19.0453 11.1173 18.832 11.3973 18.608 11.648C18.3147 11.9787 17.992 12.3013 17.64 12.616C17.288 12.9253 16.9173 13.216 16.528 13.488C16.1387 13.7547 15.7333 13.984 15.312 14.176L14.8 13.64C15.232 13.4693 15.6453 13.2587 16.04 13.008C16.44 12.752 16.8133 12.4747 17.16 12.176C17.512 11.872 17.824 11.568 18.096 11.264C18.2773 11.056 18.456 10.824 18.632 10.568C18.8133 10.3067 18.9733 10.0427 19.112 9.776C19.256 9.504 19.36 9.25867 19.424 9.04C19.3813 9.04 19.28 9.04 19.12 9.04C18.96 9.04 18.7707 9.04 18.552 9.04C18.3333 9.04 18.104 9.04 17.864 9.04C17.624 9.04 17.3947 9.04 17.176 9.04C16.9573 9.04 16.768 9.04 16.608 9.04C16.4533 9.04 16.352 9.04 16.304 9.04C16.2133 9.04 16.1093 9.04267 15.992 9.048C15.88 9.05333 15.776 9.05867 15.68 9.064C15.5893 9.06933 15.528 9.07467 15.496 9.08V8.352C15.5333 8.35733 15.6 8.36533 15.696 8.376C15.7973 8.38133 15.904 8.38667 16.016 8.392C16.128 8.39733 16.224 8.4 16.304 8.4C16.3627 8.4 16.4693 8.4 16.624 8.4C16.7787 8.4 16.9627 8.4 17.176 8.4C17.3947 8.4 17.6213 8.4 17.856 8.4C18.0907 8.4 18.3147 8.4 18.528 8.4C18.7467 8.4 18.9333 8.4 19.088 8.4C19.2427 8.4 19.344 8.4 19.392 8.4C19.5253 8.4 19.6427 8.39467 19.744 8.384C19.8507 8.37333 19.9333 8.35733 19.992 8.336L20.4 8.648ZM18.712 11.224C18.9307 11.4053 19.1547 11.6053 19.384 11.824C19.6187 12.0427 19.848 12.2693 20.072 12.504C20.296 12.7333 20.504 12.9547 20.696 13.168C20.888 13.376 21.0533 13.5653 21.192 13.736L20.632 14.216C20.4453 13.96 20.2213 13.6853 19.96 13.392C19.6987 13.0933 19.4213 12.7973 19.128 12.504C18.84 12.2053 18.5493 11.9307 18.256 11.68L18.712 11.224ZM29.008 8.664C28.9973 8.69067 28.984 8.728 28.968 8.776C28.952 8.824 28.9387 8.87467 28.928 8.928C28.9173 8.976 28.9093 9.01333 28.904 9.04C28.856 9.35467 28.8 9.68533 28.736 10.032C28.672 10.3733 28.584 10.7147 28.472 11.056C28.36 11.3973 28.208 11.72 28.016 12.024C27.6907 12.536 27.264 12.9893 26.736 13.384C26.2133 13.7733 25.6293 14.072 24.984 14.28L24.44 13.728C24.8347 13.6213 25.216 13.4747 25.584 13.288C25.9573 13.1013 26.3013 12.8747 26.616 12.608C26.9307 12.336 27.1973 12.032 27.416 11.696C27.5707 11.456 27.6987 11.1893 27.8 10.896C27.9013 10.6027 27.9813 10.296 28.04 9.976C28.104 9.65067 28.1493 9.33067 28.176 9.016C28.112 9.016 27.9947 9.016 27.824 9.016C27.6533 9.016 27.448 9.016 27.208 9.016C26.968 9.016 26.7093 9.016 26.432 9.016C26.1547 9.016 25.8773 9.016 25.6 9.016C25.3227 9.016 25.0587 9.016 24.808 9.016C24.5627 9.016 24.3467 9.016 24.16 9.016C23.9733 9.016 23.84 9.016 23.76 9.016C23.76 9.064 23.76 9.14133 23.76 9.248C23.76 9.35467 23.76 9.47733 23.76 9.616C23.76 9.74933 23.76 9.88267 23.76 10.016C23.76 10.1493 23.76 10.272 23.76 10.384C23.76 10.4907 23.76 10.568 23.76 10.616C23.76 10.6747 23.76 10.752 23.76 10.848C23.7653 10.9387 23.7733 11.032 23.784 11.128H23.056C23.0667 11.032 23.0747 10.9413 23.08 10.856C23.0853 10.7707 23.088 10.6907 23.088 10.616C23.088 10.552 23.088 10.4453 23.088 10.296C23.088 10.1467 23.088 9.98133 23.088 9.8C23.088 9.61867 23.088 9.44533 23.088 9.28C23.088 9.11467 23.088 8.992 23.088 8.912C23.088 8.82133 23.0853 8.73333 23.08 8.648C23.0747 8.55733 23.0667 8.46667 23.056 8.376C23.168 8.38133 23.2933 8.38667 23.432 8.392C23.576 8.39733 23.736 8.4 23.912 8.4C23.9493 8.4 24.0427 8.4 24.192 8.4C24.3467 8.4 24.536 8.4 24.76 8.4C24.984 8.4 25.2293 8.4 25.496 8.4C25.7627 8.4 26.0293 8.4 26.296 8.4C26.5627 8.4 26.816 8.4 27.056 8.4C27.296 8.4 27.4987 8.4 27.664 8.4C27.8347 8.4 27.952 8.4 28.016 8.4C28.1067 8.4 28.1947 8.39733 28.28 8.392C28.3707 8.38133 28.4507 8.368 28.52 8.352L29.008 8.664ZM30.816 10.536C30.896 10.5413 30.9947 10.5493 31.112 10.56C31.2293 10.5653 31.3573 10.5707 31.496 10.576C31.64 10.576 31.784 10.576 31.928 10.576C32.0133 10.576 32.144 10.576 32.32 10.576C32.5013 10.576 32.712 10.576 32.952 10.576C33.192 10.576 33.4453 10.576 33.712 10.576C33.984 10.576 34.2533 10.576 34.52 10.576C34.792 10.576 35.048 10.576 35.288 10.576C35.5333 10.576 35.744 10.576 35.92 10.576C36.096 10.576 36.2267 10.576 36.312 10.576C36.5147 10.576 36.688 10.5707 36.832 10.56C36.976 10.5493 37.0907 10.5413 37.176 10.536V11.32C37.096 11.3147 36.976 11.3067 36.816 11.296C36.6613 11.2853 36.496 11.28 36.32 11.28C36.2347 11.28 36.1013 11.28 35.92 11.28C35.7387 11.28 35.528 11.28 35.288 11.28C35.0533 11.28 34.8 11.28 34.528 11.28C34.256 11.28 33.984 11.28 33.712 11.28C33.4453 11.28 33.192 11.28 32.952 11.28C32.7173 11.28 32.5093 11.28 32.328 11.28C32.1467 11.28 32.0133 11.28 31.928 11.28C31.7093 11.28 31.5013 11.2853 31.304 11.296C31.1067 11.3013 30.944 11.3093 30.816 11.32V10.536ZM43.248 8.24C43.3173 8.336 43.3973 8.456 43.488 8.6C43.5787 8.73867 43.6667 8.88267 43.752 9.032C43.8427 9.18133 43.9173 9.32 43.976 9.448L43.52 9.656C43.456 9.51733 43.384 9.37867 43.304 9.24C43.2293 9.096 43.1493 8.95733 43.064 8.824C42.984 8.68533 42.8987 8.55733 42.808 8.44L43.248 8.24ZM44.216 7.84C44.2853 7.93067 44.3653 8.04533 44.456 8.184C44.552 8.32267 44.6453 8.46667 44.736 8.616C44.8267 8.76533 44.904 8.90133 44.968 9.024L44.52 9.248C44.4507 9.10933 44.376 8.97067 44.296 8.832C44.216 8.69333 44.1307 8.55733 44.04 8.424C43.9547 8.29067 43.8667 8.16533 43.776 8.048L44.216 7.84ZM40.44 13.4C40.44 13.3253 40.44 13.176 40.44 12.952C40.44 12.728 40.44 12.4613 40.44 12.152C40.44 11.8373 40.44 11.5067 40.44 11.16C40.44 10.8133 40.44 10.4773 40.44 10.152C40.44 9.82667 40.44 9.53867 40.44 9.288C40.44 9.03733 40.44 8.856 40.44 8.744C40.44 8.632 40.4347 8.496 40.424 8.336C40.4187 8.176 40.4027 8.03467 40.376 7.912H41.168C41.152 8.03467 41.1387 8.176 41.128 8.336C41.1173 8.49067 41.112 8.62667 41.112 8.744C41.112 8.952 41.112 9.20267 41.112 9.496C41.112 9.784 41.112 10.0933 41.112 10.424C41.112 10.7493 41.112 11.0747 41.112 11.4C41.112 11.72 41.112 12.0213 41.112 12.304C41.112 12.5813 41.112 12.8187 41.112 13.016C41.112 13.208 41.112 13.336 41.112 13.4C41.112 13.48 41.112 13.5787 41.112 13.696C41.1173 13.8133 41.1253 13.928 41.136 14.04C41.1467 14.1573 41.1547 14.2587 41.16 14.344H40.392C40.408 14.216 40.4187 14.064 40.424 13.888C40.4347 13.712 40.44 13.5493 40.44 13.4ZM40.968 10.008C41.2293 10.088 41.52 10.184 41.84 10.296C42.16 10.4027 42.4827 10.5173 42.808 10.64C43.1387 10.7627 43.4507 10.888 43.744 11.016C44.0427 11.1387 44.304 11.256 44.528 11.368L44.248 12.048C44.0187 11.9253 43.76 11.8 43.472 11.672C43.1893 11.544 42.896 11.4187 42.592 11.296C42.288 11.1733 41.9947 11.064 41.712 10.968C41.4347 10.872 41.1867 10.7893 40.968 10.72V10.008Z" fill="black"/>
</svg>
