<svg width="68" height="22" viewBox="0 0 68 22" fill="none" xmlns="http://www.w3.org/2000/svg">
<rect width="68" height="22" rx="3" fill="#1A00FF"/>
<path d="M8.46 8.15C8.66 8.15667 8.83 8.16333 8.97 8.17C9.11 8.17 9.23667 8.17 9.35 8.17C9.43 8.17 9.57667 8.17 9.79 8.17C10.0033 8.17 10.26 8.17 10.56 8.17C10.8667 8.17 11.1933 8.17 11.54 8.17C11.8867 8.17 12.23 8.17 12.57 8.17C12.9167 8.17 13.24 8.17 13.54 8.17C13.84 8.17 14.0933 8.17 14.3 8.17C14.5067 8.17 14.6467 8.17 14.72 8.17C14.8267 8.17 14.96 8.17 15.12 8.17C15.2867 8.16333 15.4467 8.15667 15.6 8.15C15.5933 8.27 15.5867 8.4 15.58 8.54C15.58 8.67333 15.58 8.80333 15.58 8.93C15.58 8.99667 15.58 9.13 15.58 9.33C15.58 9.52333 15.58 9.76 15.58 10.04C15.58 10.32 15.58 10.6233 15.58 10.95C15.58 11.27 15.58 11.59 15.58 11.91C15.58 12.23 15.58 12.5267 15.58 12.8C15.58 13.0733 15.58 13.3067 15.58 13.5C15.58 13.6867 15.58 13.8067 15.58 13.86C15.58 13.9333 15.58 14.0333 15.58 14.16C15.58 14.2867 15.58 14.4133 15.58 14.54C15.5867 14.6667 15.59 14.78 15.59 14.88C15.5967 14.9733 15.6 15.0367 15.6 15.07H14.74C14.74 15.03 14.74 14.95 14.74 14.83C14.7467 14.7033 14.75 14.5633 14.75 14.41C14.7567 14.25 14.76 14.1 14.76 13.96C14.76 13.9133 14.76 13.7867 14.76 13.58C14.76 13.3733 14.76 13.12 14.76 12.82C14.76 12.5133 14.76 12.1867 14.76 11.84C14.76 11.4867 14.76 11.1433 14.76 10.81C14.76 10.47 14.76 10.16 14.76 9.88C14.76 9.6 14.76 9.37667 14.76 9.21C14.76 9.04333 14.76 8.96 14.76 8.96H9.29C9.29 8.96 9.29 9.04333 9.29 9.21C9.29 9.37 9.29 9.59 9.29 9.87C9.29 10.15 9.29 10.46 9.29 10.8C9.29 11.1333 9.29 11.4733 9.29 11.82C9.29 12.1667 9.29 12.4933 9.29 12.8C9.29 13.1 9.29 13.3533 9.29 13.56C9.29 13.7667 9.29 13.9 9.29 13.96C9.29 14.0467 9.29 14.1467 9.29 14.26C9.29 14.3733 9.29 14.4867 9.29 14.6C9.29667 14.7067 9.3 14.8033 9.3 14.89C9.30667 14.9767 9.31 15.0367 9.31 15.07H8.45C8.45 15.0367 8.45 14.9733 8.45 14.88C8.45667 14.78 8.46 14.6667 8.46 14.54C8.46667 14.4133 8.47 14.29 8.47 14.17C8.47 14.0433 8.47 13.9367 8.47 13.85C8.47 13.7967 8.47 13.6733 8.47 13.48C8.47 13.2867 8.47 13.05 8.47 12.77C8.47 12.49 8.47 12.19 8.47 11.87C8.47 11.5433 8.47 11.22 8.47 10.9C8.47 10.5733 8.47 10.2733 8.47 10C8.47 9.72 8.47 9.48667 8.47 9.3C8.47 9.10667 8.47 8.98333 8.47 8.93C8.47 8.81 8.47 8.68 8.47 8.54C8.47 8.4 8.46667 8.27 8.46 8.15ZM15.08 13.71V14.49H8.9V13.71H15.08ZM24.65 7C24.7367 7.11333 24.83 7.25333 24.93 7.42C25.03 7.58 25.1267 7.74333 25.22 7.91C25.3133 8.07667 25.3967 8.23 25.47 8.37L24.93 8.61C24.83 8.41 24.7033 8.17667 24.55 7.91C24.3967 7.64333 24.2533 7.41667 24.12 7.23L24.65 7ZM25.75 6.6C25.8367 6.72 25.93 6.86333 26.03 7.03C26.1367 7.19667 26.24 7.36333 26.34 7.53C26.44 7.69 26.5233 7.83333 26.59 7.96L26.05 8.2C25.9433 7.98 25.8133 7.74333 25.66 7.49C25.5067 7.23667 25.36 7.01667 25.22 6.83L25.75 6.6ZM25.31 8.99C25.27 9.05667 25.23 9.14333 25.19 9.25C25.15 9.35 25.1133 9.44 25.08 9.52C24.9933 9.85333 24.8667 10.22 24.7 10.62C24.54 11.0133 24.3433 11.4133 24.11 11.82C23.8767 12.22 23.61 12.6033 23.31 12.97C22.8567 13.5233 22.3133 14.0267 21.68 14.48C21.0467 14.9333 20.2633 15.3367 19.33 15.69L18.6 15.03C19.2133 14.85 19.7633 14.6333 20.25 14.38C20.7367 14.12 21.1733 13.8333 21.56 13.52C21.9533 13.2067 22.3 12.8733 22.6 12.52C22.86 12.2133 23.0967 11.8767 23.31 11.51C23.5233 11.1433 23.7067 10.7767 23.86 10.41C24.02 10.0367 24.13 9.7 24.19 9.4H20.49L20.81 8.68C20.89 8.68 21.04 8.68 21.26 8.68C21.48 8.68 21.73 8.68 22.01 8.68C22.2967 8.68 22.58 8.68 22.86 8.68C23.14 8.68 23.3833 8.68 23.59 8.68C23.7967 8.68 23.9333 8.68 24 8.68C24.1333 8.68 24.2533 8.67333 24.36 8.66C24.4733 8.64667 24.57 8.62333 24.65 8.59L25.31 8.99ZM21.96 7.48C21.88 7.61333 21.8 7.75333 21.72 7.9C21.64 8.04667 21.5733 8.16667 21.52 8.26C21.3267 8.62667 21.08 9.02333 20.78 9.45C20.48 9.87 20.12 10.29 19.7 10.71C19.2867 11.1233 18.8133 11.5067 18.28 11.86L17.58 11.35C18.0133 11.09 18.4 10.8133 18.74 10.52C19.0867 10.22 19.3867 9.91667 19.64 9.61C19.9 9.30333 20.12 9.01 20.3 8.73C20.48 8.44333 20.6233 8.19 20.73 7.97C20.7833 7.88333 20.84 7.76333 20.9 7.61C20.9667 7.45 21.0133 7.30333 21.04 7.17L21.96 7.48ZM27.86 11.39C28.7267 11.1567 29.5333 10.8733 30.28 10.54C31.0267 10.2067 31.6767 9.86667 32.23 9.52C32.5767 9.3 32.9133 9.06333 33.24 8.81C33.5733 8.55 33.8867 8.28 34.18 8C34.4733 7.72 34.7333 7.44333 34.96 7.17L35.63 7.79C35.35 8.09 35.0467 8.38333 34.72 8.67C34.3933 8.95667 34.0467 9.23333 33.68 9.5C33.32 9.76 32.9433 10.0133 32.55 10.26C32.1833 10.48 31.77 10.7067 31.31 10.94C30.85 11.1733 30.36 11.3933 29.84 11.6C29.32 11.8067 28.7933 11.9967 28.26 12.17L27.86 11.39ZM32.07 9.94L32.93 9.68V14.24C32.93 14.3667 32.93 14.5 32.93 14.64C32.9367 14.78 32.9433 14.91 32.95 15.03C32.9633 15.15 32.9767 15.2433 32.99 15.31H32.01C32.0167 15.2433 32.0233 15.15 32.03 15.03C32.0433 14.91 32.0533 14.78 32.06 14.64C32.0667 14.5 32.07 14.3667 32.07 14.24V9.94ZM39.27 7.67C39.45 7.79 39.6567 7.94 39.89 8.12C40.1233 8.29333 40.36 8.48 40.6 8.68C40.8467 8.87333 41.0767 9.06333 41.29 9.25C41.5033 9.43667 41.68 9.6 41.82 9.74L41.19 10.37C41.0633 10.2433 40.9 10.0867 40.7 9.9C40.5 9.71333 40.28 9.52 40.04 9.32C39.8 9.11333 39.5633 8.92 39.33 8.74C39.0967 8.55333 38.8867 8.4 38.7 8.28L39.27 7.67ZM38.41 14.37C38.9967 14.2833 39.53 14.1633 40.01 14.01C40.4967 13.8567 40.94 13.6833 41.34 13.49C41.74 13.2967 42.0967 13.1033 42.41 12.91C42.9233 12.59 43.3967 12.2233 43.83 11.81C44.2633 11.39 44.6433 10.9567 44.97 10.51C45.2967 10.0633 45.5567 9.63667 45.75 9.23L46.23 10.08C46.0033 10.4933 45.7233 10.9133 45.39 11.34C45.0567 11.7667 44.68 12.1767 44.26 12.57C43.84 12.9633 43.3767 13.32 42.87 13.64C42.5367 13.8467 42.17 14.05 41.77 14.25C41.3767 14.45 40.9433 14.6333 40.47 14.8C40.0033 14.96 39.4933 15.09 38.94 15.19L38.41 14.37Z" fill="white"/>
<path d="M60.5323 10.6143C60.7748 10.8143 60.7748 11.1857 60.5323 11.3857L56.5681 14.6553C56.242 14.9243 55.75 14.6923 55.75 14.2696V7.73039C55.75 7.30766 56.242 7.07569 56.5681 7.34467L60.5323 10.6143Z" fill="white"/>
</svg>
