<svg width="149" height="22" viewBox="0 0 149 22" fill="none" xmlns="http://www.w3.org/2000/svg">
<rect x="0.25" y="0.25" width="148.5" height="21.5" rx="1.75" fill="white" stroke="black" stroke-width="0.5"/>
<path d="M12.272 8.856C12.256 8.89333 12.2427 8.93867 12.232 8.992C12.2213 9.04533 12.2133 9.088 12.208 9.12C12.192 9.28 12.1653 9.496 12.128 9.768C12.0907 10.0347 12.048 10.328 12 10.648C11.952 10.9627 11.904 11.2747 11.856 11.584C11.808 11.8933 11.7627 12.176 11.72 12.432C11.6773 12.688 11.6453 12.888 11.624 13.032H10.912C10.9333 12.9147 10.96 12.7573 10.992 12.56C11.0293 12.3573 11.0667 12.1333 11.104 11.888C11.1413 11.6427 11.1787 11.3893 11.216 11.128C11.2587 10.8667 11.296 10.616 11.328 10.376C11.36 10.136 11.3867 9.92267 11.408 9.736C11.4293 9.54933 11.4427 9.40533 11.448 9.304C11.304 9.304 11.1173 9.304 10.888 9.304C10.6587 9.304 10.4107 9.304 10.144 9.304C9.87733 9.304 9.616 9.304 9.36 9.304C9.10933 9.304 8.888 9.304 8.696 9.304C8.504 9.304 8.37067 9.304 8.296 9.304C8.152 9.304 8.01867 9.30667 7.896 9.312C7.77867 9.31733 7.656 9.32533 7.528 9.336V8.624C7.65067 8.64 7.776 8.65333 7.904 8.664C8.032 8.66933 8.16 8.672 8.288 8.672C8.352 8.672 8.45333 8.672 8.592 8.672C8.736 8.672 8.904 8.672 9.096 8.672C9.288 8.672 9.488 8.672 9.696 8.672C9.904 8.672 10.1067 8.672 10.304 8.672C10.5067 8.672 10.688 8.672 10.848 8.672C11.0133 8.672 11.144 8.672 11.24 8.672C11.2933 8.672 11.352 8.66933 11.416 8.664C11.4853 8.65867 11.5467 8.65067 11.6 8.64C11.6587 8.62933 11.704 8.616 11.736 8.6L12.272 8.856ZM6.632 12.816C6.74933 12.832 6.86667 12.8453 6.984 12.856C7.10667 12.8613 7.224 12.864 7.336 12.864H12.736C12.8587 12.864 12.9733 12.8587 13.08 12.848C13.192 12.8373 13.2987 12.8267 13.4 12.816V13.544C13.2933 13.5333 13.176 13.5253 13.048 13.52C12.92 13.5147 12.816 13.512 12.736 13.512H7.336C7.224 13.512 7.10933 13.5147 6.992 13.52C6.87467 13.5253 6.75467 13.5333 6.632 13.544V12.816ZM14.816 10.536C14.896 10.5413 14.9947 10.5493 15.112 10.56C15.2293 10.5653 15.3573 10.5707 15.496 10.576C15.64 10.576 15.784 10.576 15.928 10.576C16.0133 10.576 16.144 10.576 16.32 10.576C16.5013 10.576 16.712 10.576 16.952 10.576C17.192 10.576 17.4453 10.576 17.712 10.576C17.984 10.576 18.2533 10.576 18.52 10.576C18.792 10.576 19.048 10.576 19.288 10.576C19.5333 10.576 19.744 10.576 19.92 10.576C20.096 10.576 20.2267 10.576 20.312 10.576C20.5147 10.576 20.688 10.5707 20.832 10.56C20.976 10.5493 21.0907 10.5413 21.176 10.536V11.32C21.096 11.3147 20.976 11.3067 20.816 11.296C20.6613 11.2853 20.496 11.28 20.32 11.28C20.2347 11.28 20.1013 11.28 19.92 11.28C19.7387 11.28 19.528 11.28 19.288 11.28C19.0533 11.28 18.8 11.28 18.528 11.28C18.256 11.28 17.984 11.28 17.712 11.28C17.4453 11.28 17.192 11.28 16.952 11.28C16.7173 11.28 16.5093 11.28 16.328 11.28C16.1467 11.28 16.0133 11.28 15.928 11.28C15.7093 11.28 15.5013 11.2853 15.304 11.296C15.1067 11.3013 14.944 11.3093 14.816 11.32V10.536ZM28.2198 7.896C28.2678 7.992 28.3211 8.10667 28.3798 8.24C28.4384 8.37333 28.4944 8.50933 28.5478 8.648C28.6064 8.78133 28.6518 8.90133 28.6838 9.008L28.2918 9.144C28.2544 9.02667 28.2091 8.90133 28.1558 8.768C28.1024 8.63467 28.0491 8.50133 27.9958 8.368C27.9424 8.23467 27.8891 8.11733 27.8358 8.016L28.2198 7.896ZM29.0118 7.656C29.0651 7.752 29.1211 7.86667 29.1798 8C29.2384 8.128 29.2971 8.25867 29.3558 8.392C29.4144 8.52533 29.4598 8.648 29.4918 8.76L29.0998 8.888C29.0358 8.712 28.9611 8.52 28.8758 8.312C28.7904 8.104 28.7078 7.92533 28.6278 7.776L29.0118 7.656ZM27.4598 10.464C27.4598 10.9973 27.4251 11.472 27.3558 11.888C27.2864 12.2987 27.1664 12.664 26.9958 12.984C26.8304 13.2987 26.5984 13.5813 26.2998 13.832C26.0064 14.0773 25.6304 14.304 25.1718 14.512L24.6358 14C24.9984 13.8613 25.3158 13.7067 25.5878 13.536C25.8598 13.36 26.0864 13.144 26.2678 12.888C26.4491 12.632 26.5851 12.3147 26.6758 11.936C26.7664 11.552 26.8118 11.08 26.8118 10.52V8.576C26.8118 8.416 26.8064 8.27733 26.7958 8.16C26.7904 8.03733 26.7851 7.95733 26.7798 7.92H27.4998C27.4944 7.95733 27.4864 8.03733 27.4758 8.16C27.4651 8.27733 27.4598 8.416 27.4598 8.576V10.464ZM24.5718 7.968C24.5718 8.00533 24.5664 8.07733 24.5558 8.184C24.5451 8.28533 24.5398 8.40533 24.5398 8.544V11.48C24.5398 11.576 24.5424 11.6773 24.5478 11.784C24.5531 11.8853 24.5558 11.9733 24.5558 12.048C24.5611 12.1227 24.5664 12.1733 24.5718 12.2H23.8598C23.8651 12.1733 23.8704 12.1227 23.8758 12.048C23.8811 11.9733 23.8864 11.8853 23.8918 11.784C23.8971 11.6827 23.8997 11.5813 23.8997 11.48V8.552C23.8997 8.46133 23.8971 8.36533 23.8918 8.264C23.8864 8.15733 23.8758 8.05867 23.8598 7.968H24.5718ZM22.2358 9.52C22.2571 9.52533 22.3104 9.53333 22.3958 9.544C22.4811 9.54933 22.5798 9.55733 22.6918 9.568C22.8091 9.57333 22.9238 9.576 23.0358 9.576H28.3318C28.5131 9.576 28.6678 9.57067 28.7958 9.56C28.9238 9.54933 29.0144 9.53867 29.0678 9.528V10.208C29.0251 10.2027 28.9371 10.1973 28.8038 10.192C28.6704 10.1867 28.5158 10.184 28.3398 10.184H23.0358C22.9184 10.184 22.8038 10.1867 22.6918 10.192C22.5851 10.192 22.4891 10.1947 22.4038 10.2C22.3238 10.2053 22.2678 10.2107 22.2358 10.216V9.52ZM30.6598 10.536C30.7398 10.5413 30.8384 10.5493 30.9558 10.56C31.0731 10.5653 31.2011 10.5707 31.3398 10.576C31.4838 10.576 31.6278 10.576 31.7718 10.576C31.8571 10.576 31.9878 10.576 32.1638 10.576C32.3451 10.576 32.5558 10.576 32.7958 10.576C33.0358 10.576 33.2891 10.576 33.5558 10.576C33.8278 10.576 34.0971 10.576 34.3637 10.576C34.6358 10.576 34.8918 10.576 35.1318 10.576C35.3771 10.576 35.5878 10.576 35.7638 10.576C35.9398 10.576 36.0704 10.576 36.1558 10.576C36.3584 10.576 36.5318 10.5707 36.6758 10.56C36.8198 10.5493 36.9344 10.5413 37.0198 10.536V11.32C36.9398 11.3147 36.8198 11.3067 36.6598 11.296C36.5051 11.2853 36.3398 11.28 36.1638 11.28C36.0784 11.28 35.9451 11.28 35.7638 11.28C35.5824 11.28 35.3718 11.28 35.1318 11.28C34.8971 11.28 34.6438 11.28 34.3718 11.28C34.0998 11.28 33.8278 11.28 33.5558 11.28C33.2891 11.28 33.0358 11.28 32.7958 11.28C32.5611 11.28 32.3531 11.28 32.1718 11.28C31.9904 11.28 31.8571 11.28 31.7718 11.28C31.5531 11.28 31.3451 11.2853 31.1478 11.296C30.9504 11.3013 30.7878 11.3093 30.6598 11.32V10.536ZM40.7638 13.768H44.6198V14.32H40.7638V13.768ZM40.4838 8.08H43.4198V8.624H40.4838V8.08ZM40.8438 7.256L41.5238 7.384C41.3211 7.73067 41.0784 8.08 40.7958 8.432C40.5131 8.77867 40.1878 9.11467 39.8198 9.44C39.4518 9.76533 39.0358 10.064 38.5718 10.336C38.5451 10.288 38.5051 10.2347 38.4518 10.176C38.4038 10.1173 38.3531 10.0613 38.2998 10.008C38.2464 9.94933 38.1958 9.904 38.1478 9.872C38.5851 9.632 38.9771 9.36533 39.3238 9.072C39.6758 8.77333 39.9771 8.46933 40.2278 8.16C40.4838 7.84533 40.6891 7.544 40.8438 7.256ZM43.2198 8.08H43.3398L43.4438 8.048L43.8438 8.272C43.6038 8.87467 43.2918 9.42667 42.9078 9.928C42.5238 10.4293 42.0891 10.8773 41.6038 11.272C41.1238 11.6667 40.6144 12.0107 40.0758 12.304C39.5424 12.592 39.0011 12.824 38.4518 13C38.4304 12.9467 38.3984 12.8853 38.3558 12.816C38.3184 12.7467 38.2758 12.68 38.2278 12.616C38.1851 12.552 38.1451 12.5013 38.1077 12.464C38.6251 12.3147 39.1424 12.1067 39.6598 11.84C40.1771 11.5733 40.6651 11.256 41.1238 10.888C41.5878 10.52 42.0011 10.1093 42.3637 9.656C42.7318 9.20267 43.0171 8.71467 43.2198 8.192V8.08ZM39.4918 9.504L39.9318 9.128C40.1451 9.26667 40.3638 9.42667 40.5878 9.608C40.8171 9.78933 41.0304 9.97067 41.2278 10.152C41.4251 10.3333 41.5851 10.5013 41.7078 10.656L41.2198 11.08C41.1078 10.9253 40.9558 10.7547 40.7638 10.568C40.5718 10.3813 40.3638 10.1947 40.1398 10.008C39.9158 9.82133 39.6998 9.65333 39.4918 9.504ZM44.3318 11.232H44.9478V14.656H44.3318V11.232ZM41.0358 11.232H44.6358V11.784H41.0358V14.64H40.4358V11.712L40.9158 11.232H41.0358Z" fill="black"/>
</svg>
